<svg id="canvas" height="auto" xmlns="http://www.w3.org/2000/svg" version="1.1" xmlns:xlink="http://www.w3.org/1999/xlink" viewBox="0 0 900 512" width="auto" style="width: auto; height: auto;"><rect width="900" height="512" fill="transparent"/><g stroke-opacity="1" stroke="#7689de" transform="matrix(1,0,0,1,45.44574348465107,84.08774473365733)"><path d="M136.10299331350805,-17.439026287879134C123.8645876224902,16.962050566452792,50.117716944617,66.16531167184927,20.765117736045475,87.0223729732705C-8.587481472526054,107.87943427469175,-23.382960707488465,123.67014232389124,-40.01260193792112,107.70334152064828C-56.64224316835377,91.73654071740532,-78.76980506710983,29.38485502856637,-79.01272964655044,-8.778431846187232C-79.25565422599105,-46.941718720940834,-70.33819633601529,-102.84210367678435,-41.47014941456479,-121.27637972787332C-12.602102493114291,-139.7106557789623,64.60002809414038,-136.69031372605338,94.19555188215253,-119.38408815272102C123.79107567016467,-102.07786257938865,148.3413990045259,-51.84010314221106,136.10299331350805,-17.439026287879134C123.8645876224902,16.962050566452792,50.117716944617,66.16531167184927,20.765117736045475,87.0223729732705" fill-opacity="0.25" fill="#7689de"/></g><g stroke-opacity="1" stroke="#7689de" transform="matrix(1,0,0,1,45.28104109684,164.53491883191165)"><path d="M75.94839239855686,38.71431284328204C78.06321880216655,64.33819855968622,51.046983704314314,58.552362730671106,27.631190066642322,63.87797643131328C4.215396428970326,69.20359013195545,-40.44395448886414,74.30997124244237,-64.54636942747511,70.66799504713507C-88.64878436608609,67.02601885182776,-116.72743879165586,72.53882146141203,-116.98329956502357,42.02611925946945C-117.23916033839129,11.51341705752688,-88.06912260268274,-90.42630864342348,-66.08153406768145,-112.40821816452036C-44.09394553268015,-134.39012768561724,-8.729422766055514,-115.05242636841226,14.9422316449842,-89.86533786711186C38.613886056023915,-64.67824936581147,73.83356599494718,13.090427126877849,75.94839239855686,38.71431284328204C78.06321880216655,64.33819855968622,51.046983704314314,58.552362730671106,27.631190066642322,63.87797643131328" fill-opacity="0.25" fill="#7689de"/></g><g stroke-opacity="1" stroke="#7689de" transform="matrix(1,0,0,1,29.581345984691826,310.29621130106227)"><path d="M103.32337630638642,17.455745723967958C100.73898898870436,39.2818978938026,69.74236974515262,73.42683215123859,42.26968931501303,84.58641341315885C14.797008884873446,95.74599467507912,-32.61653635817672,98.23652718319843,-61.512706274451105,84.41323329548956C-90.4088761907255,70.58993940778069,-133.7373151729215,25.038410912750454,-131.1073301826333,1.6466500869056588C-128.47734519234507,-21.745110738939136,-77.21335356667815,-47.93447337745342,-45.732796332721705,-55.9373316595792C-14.252239098765255,-63.94018994170498,32.93331778125406,-58.602679169773545,57.776013221105416,-46.37049960584902C82.61870866095677,-34.138320041924494,105.90776362406848,-4.370406445866685,103.32337630638642,17.455745723967958C100.73898898870436,39.2818978938026,69.74236974515262,73.42683215123859,42.26968931501303,84.58641341315885" fill-opacity="0.25" fill="#7689de"/></g><g stroke-opacity="1" stroke="#7689de" transform="matrix(1,0,0,1,32.41870868205219,423.9594893302136)"><path d="M78.7856045386209,-11.540795231354387C84.29730314380183,22.301176879076593,61.74979274185128,88.30471403032162,37.990446454537675,104.34596080001735C14.23110016722407,120.38720756971308,-42.55805738848508,104.13351536555842,-63.77047318526074,84.70668538681997C-84.9828889820364,65.27985540808152,-88.09062830630751,12.197045122072197,-89.28404832611625,-12.215019072413398C-90.47746834592499,-36.62708326689899,-86.63171049570792,-47.35055764840108,-70.9309933041132,-61.7656997800936C-55.23027611251848,-76.18084191178612,-20.03251148367027,-107.07668928735838,4.9202548234520815,-98.70587186256851C29.87302113057443,-90.33505443777865,73.27390593343998,-45.38276734178537,78.7856045386209,-11.540795231354387C84.29730314380183,22.301176879076593,61.74979274185128,88.30471403032162,37.990446454537675,104.34596080001735" fill-opacity="0.25" fill="#7689de"/></g><g stroke-opacity="1" stroke="#7689de" transform="matrix(1,0,0,1,143.80953931519662,68.20480950257237)"><path d="M119.13869363970635,-18.813219434181644C116.48259343612727,14.266711743444699,81.3831853046448,91.30982573050504,53.40110249757659,113.74429337256878C25.419019690508375,136.1787610146325,-20.56536710225159,140.42331314196767,-48.753803202702954,115.79358641820076C-76.94223930315432,91.16385969443387,-111.16571916288311,-4.2088147616887035,-115.72951410513159,-34.03406697003261C-120.29330904738006,-63.85931917837652,-106.9811091602243,-54.70772237800324,-76.13657285619387,-63.15792683186268C-45.292036552163424,-71.60813128572212,36.79182596973433,-92.12607825946942,69.33770371905104,-84.73529369318925C101.88358146836774,-77.34450912690907,121.79479384328542,-51.89315061180798,119.13869363970635,-18.813219434181644C116.48259343612727,14.266711743444699,81.3831853046448,91.30982573050504,53.40110249757659,113.74429337256878" fill-opacity="0.25" fill="#7689de"/></g><g stroke-opacity="1" stroke="#7689de" transform="matrix(1,0,0,1,155.89274158382253,208.19313557122942)"><path d="M136.79361761201002,29.09421183607318C138.2690568982445,48.49696608642354,85.65017610164851,53.676037294826216,57.68076071740674,70.21801326883302C29.711345333164967,86.75998924283982,-8.972561375513209,138.79833203650978,-31.022874693440627,128.346067680114C-53.073188011368046,117.89380332371822,-71.96971693363443,41.63065057612193,-74.62111919015778,7.504427130458325C-77.27252144668114,-26.62179631520528,-67.50616226427374,-67.46078309991303,-46.93128823258078,-76.41127299386761C-26.35641420088783,-85.3617628878222,18.2073073592348,-63.78275970492594,48.828124999999936,-46.19851223326914C79.44894264076507,-28.614264761612343,135.31817832577556,9.69145758572282,136.79361761201002,29.09421183607318C138.2690568982445,48.49696608642354,85.65017610164851,53.676037294826216,57.68076071740674,70.21801326883302" fill-opacity="0.25" fill="#7689de"/></g><g stroke-opacity="1" stroke="#7689de" transform="matrix(1,0,0,1,180.7995651638584,326.08478949820807)"><path d="M94.3485777381211,-3.8291754210597233C95.59183401087475,21.22242068509446,50.39060422277987,70.91166248604485,32.632592704367745,84.57279333832406C14.874581185955616,98.23392419060328,4.559182315943335,91.75691189846206,-12.199491372351673,78.13760969261553C-28.95816506064668,64.51830748676899,-65.63569822358117,28.680890361046803,-67.91944942540232,2.856980103244851C-70.20320062722347,-22.9669301545571,-41.417415998819926,-65.37355795388854,-25.90199858327857,-76.80585185419619C-10.386581167737212,-88.23814575450385,5.131292347612547,-77.89956270412378,25.173055067845823,-65.73678329860104C45.2148177880791,-53.57400389307829,93.10532146536744,-28.880771527213906,94.3485777381211,-3.8291754210597233C95.59183401087475,21.22242068509446,50.39060422277987,70.91166248604485,32.632592704367745,84.57279333832406" fill-opacity="0.25" fill="#7689de"/></g><g stroke-opacity="1" stroke="#7689de" transform="matrix(1,0,0,1,179.86514068227834,432.13539039896733)"><path d="M76.55629040741071,-2.1316282072803006e-14C76.57540689347502,31.176251610971693,73.78287762542234,77.56433423207211,51.83520317803546,95.70354699444239C29.887528730648572,113.84275975681267,-30.214514080571345,121.75537541004641,-55.129756276910584,108.83527657422161C-80.04499847324982,95.9151777383968,-100.7086039996468,54.093386286864124,-97.65625,18.182953979493604C-94.6038960003532,-17.727478327876916,-61.711757989304694,-88.37116449485458,-36.815632279029764,-106.6273172700015C-11.919506568754834,-124.88347004514841,32.825183813909504,-109.12518221638814,51.72050426164958,-91.35396267138789C70.61582470938966,-73.58274312638764,76.53717392134641,-31.176251610971736,76.55629040741071,-2.1316282072803006e-14C76.57540689347502,31.176251610971693,73.78287762542234,77.56433423207211,51.83520317803546,95.70354699444239" fill-opacity="0.25" fill="#7689de"/></g><g stroke-opacity="1" stroke="#7689de" transform="matrix(1,0,0,1,262.5988604328165,55.494159623830384)"><path d="M97.65625,-4.280073244896634C90.63226508408093,25.637981082424492,39.416646674312865,81.73745056989681,13.799079111836269,96.57833468028417C-11.818488450640325,111.41921879067154,-44.26391215762115,97.49747371938876,-56.04915537485957,84.76523141742757C-67.834398592098,72.03298911546638,-58.115885254070854,45.515629177305016,-56.912380191594266,20.184880868517C-55.70887512911768,-5.145867440271015,-67.63735313315753,-50.033446409940574,-48.82812500000004,-67.2192584353005C-30.01889686684255,-84.40507046066043,31.528926107350696,-93.41985548204322,55.942988607350706,-82.92999128364258C80.35705110735071,-72.44012708524194,104.68023491591907,-34.19812757221776,97.65625,-4.280073244896634C90.63226508408093,25.637981082424492,39.416646674312865,81.73745056989681,13.799079111836269,96.57833468028417" fill-opacity="0.25" fill="#7689de"/></g><g stroke-opacity="1" stroke="#7689de" transform="matrix(1,0,0,1,301.598829315466,202.61972342801795)"><path d="M73.29371768530366,14.02123542335594C76.45320895334665,48.50935562232127,90.6278846405664,76.4199362899976,69.93698973465453,84.57279333832406C49.246094828742656,92.72565038665053,-24.019793324940782,73.77271848269478,-50.85165175016758,62.938377713314765C-77.68351017539439,52.10403694393474,-84.18233054007975,48.05271302654154,-91.0541608167063,19.56674872204391C-97.92599109333285,-8.91921558245372,-115.75500056711074,-84.32362868408572,-92.08263340992691,-107.97740811367103C-68.41026625274309,-131.63118754325635,23.417316943858225,-142.6890351116391,50.980042126396654,-122.35592785546794C78.54276730893508,-102.02282059929678,70.13422641726068,-20.466884775609394,73.29371768530366,14.02123542335594C76.45320895334665,48.50935562232127,90.6278846405664,76.4199362899976,69.93698973465453,84.57279333832406" fill-opacity="0.25" fill="#7689de"/></g><g stroke-opacity="1" stroke="#7689de" transform="matrix(1,0,0,1,266.879065151741,314.2981157802329)"><path d="M73.5829275100783,-5.692324315406751C71.37127576825229,20.478355539256153,68.1230497683439,72.70711923693496,47.72120768333086,89.04116893455651C27.319365598317813,105.37521863217806,-21.05881260525598,103.73579537107773,-48.82812499999997,92.31197387032253C-76.59743739474396,80.88815236956734,-120.45425593392645,53.55715773183421,-118.89466668513309,20.49823993002535C-117.33507743633973,-12.560677871783511,-69.45155364380982,-91.29467458662292,-39.4705895072398,-106.04153294053063C-9.489625370669788,-120.78839129443834,42.148865298067314,-84.70777829760821,60.991118134287,-67.9829101934209C79.83337097050668,-51.2580420892336,75.79457925190432,-31.863004170069654,73.5829275100783,-5.692324315406751C71.37127576825229,20.478355539256153,68.1230497683439,72.70711923693496,47.72120768333086,89.04116893455651" fill-opacity="0.25" fill="#7689de"/></g><g stroke-opacity="1" stroke="#7689de" transform="matrix(1,0,0,1,294.17559392033627,447.01455767895715)"><path d="M97.65625,-24.362259623199122C93.99140604531146,0.16476348233954852,55.05060957795948,55.21119623292387,27.75897915895919,65.26298510845194C0.46734873995890425,75.31477398398002,-45.19099432086503,43.435743110038366,-66.09353251400171,35.94847362996933C-86.99607070713839,28.46120414990029,-102.56136290979912,43.804338112933735,-97.6562499998609,20.339368228037713C-92.7511370899227,-3.1256016568583043,-61.230237202197635,-87.80159205393714,-36.66285505437242,-104.84134567940677C-12.095472906547208,-121.8810993048764,27.361525378028293,-95.31233453414802,49.748042887090364,-81.89915352478008C72.13456039615244,-68.48597251541213,101.32109395468854,-48.8892827287378,97.65625,-24.362259623199122C93.99140604531146,0.16476348233954852,55.05060957795948,55.21119623292387,27.75897915895919,65.26298510845194" fill-opacity="0.25" fill="#7689de"/></g><g stroke-opacity="1" stroke="#7689de" transform="matrix(1,0,0,1,376.69819509240375,77.15818580159295)"><path d="M56.54364439873725,21.017408396288552C56.60905340968295,45.22540952647944,66.39008656645622,77.83802809984044,48.828125000000014,84.57279333832406C31.26616343354381,91.30755857680768,-18.545277904476524,74.96308324635203,-48.82812499999997,61.425999827190275C-79.11097209552342,47.88891640802853,-132.0153732322092,31.181188707258023,-132.86895757314068,3.350292823353591C-133.72254191407214,-24.48060306055084,-84.16706913016652,-94.88845776520716,-53.949631045588774,-105.55937547623631C-23.732192961011027,-116.23029318726546,30.020125026938135,-81.77134408824207,48.435670934325806,-60.67521344282126C66.85121684171348,-39.579082797400446,56.47823538779155,-3.1905927339023314,56.54364439873725,21.017408396288552C56.60905340968295,45.22540952647944,66.39008656645622,77.83802809984044,48.828125000000014,84.57279333832406" fill-opacity="0.25" fill="#7689de"/></g><g stroke-opacity="1" stroke="#7689de" transform="matrix(1,0,0,1,386.1403168542231,161.49708658943482)"><path d="M97.64540890667189,-2.1316282072803006e-14C95.33517386619721,21.099263202629462,76.45129990183278,50.23752412923995,48.90032250602835,60.27256750889104C21.349345110223915,70.30761088854214,-41.916590031273486,62.786970166405695,-67.66045546815474,60.21026027790654C-93.40432090503599,57.63355038940739,-104.64116968741232,68.94281711393458,-105.56287011525916,44.81230817789614C-106.484570543106,20.681799241857707,-101.24475851259173,-66.05024002419373,-73.1906580352358,-84.57279333832406C-45.13655755787987,-103.0953466524544,34.28905492522511,-80.4184772632732,62.76173274887639,-66.32301170688586C91.23441057252768,-52.227546150498526,99.95564394714657,-21.099263202629505,97.64540890667189,-2.1316282072803006e-14C95.33517386619721,21.099263202629462,76.45129990183278,50.23752412923995,48.90032250602835,60.27256750889104" fill-opacity="0.25" fill="#7689de"/></g><g stroke-opacity="1" stroke="#7689de" transform="matrix(1,0,0,1,392.29701777861146,343.90887918012055)"><path d="M97.65625,-2.1316282072803006e-14C92.27424257494313,20.375722767679648,47.728816245904255,51.274122709400615,26.60098421176557,60.533234408723914C5.473152177626886,69.79234610804721,-5.891796027645913,63.203091113877306,-29.110742204832107,55.554670195939764C-52.329688382018304,47.90624927800222,-112.82794938435475,35.0012666068892,-112.71269285135159,14.642708901098665C-112.59743631834843,-5.715848804691873,-57.020156609056215,-53.86937418906134,-28.41920300681315,-66.59667603880347C0.18175059542991434,-79.3239778885456,37.88045326097125,-72.82054820382135,58.89302876210678,-61.7211021973541C79.90560426324231,-50.62165619088686,103.03825742505687,-20.37572276767969,97.65625,-2.1316282072803006e-14C92.27424257494313,20.375722767679648,47.728816245904255,51.274122709400615,26.60098421176557,60.533234408723914" fill-opacity="0.25" fill="#7689de"/></g><g stroke-opacity="1" stroke="#7689de" transform="matrix(1,0,0,1,367.82899833871886,470.8775820109619)"><path d="M134.08733477998322,15.159629741625082C136.20193393660816,47.16155679036342,108.17707210176866,67.65992945270884,74.21764093894696,83.12806604063199C40.25820977612525,98.59620262855515,-41.02360370712253,118.34923415617205,-69.66925219694703,107.96844926916397C-98.31490068677152,97.5876643821559,-101.12977119949116,57.43606320987643,-97.65625,20.84335671858352C-94.18272880050884,-15.749349772709387,-75.35917433319959,-89.9666475168632,-48.82812500000004,-111.58778967859347C-22.29707566680049,-133.20893184032371,31.044136035866774,-130.0080661551678,61.53004599919732,-108.88349625179805C92.01595596252787,-87.75892634842829,131.9727356233583,-16.842297307113256,134.08733477998322,15.159629741625082C136.20193393660816,47.16155679036342,108.17707210176866,67.65992945270884,74.21764093894696,83.12806604063199" fill-opacity="0.25" fill="#7689de"/></g><g stroke-opacity="1" stroke="#7689de" transform="matrix(1,0,0,1,487.63823710401005,66.27405107615454)"><path d="M78.39510217466189,-18.857143212133362C83.9839449450734,4.726938177862259,80.7306428474784,60.294358993898314,57.58095628467375,80.81256797556003C34.4312697218691,101.33077695722174,-38.7785957491879,121.78128688965835,-60.50301720216606,104.25211067783694C-82.22743865514423,86.72293446601553,-81.67681967054816,7.280004038174628,-72.76557243319525,-24.362489295368444C-63.854325195842335,-56.00498262891152,-23.171112460615273,-79.54794414524729,-7.035533778048617,-85.6028493234215C9.10004490451804,-91.6577545015957,9.809460336752945,-71.81620471629506,24.047899662204696,-60.691920364413704C38.28633898765645,-49.56763601253235,72.80625940425037,-42.44122460212898,78.39510217466189,-18.857143212133362C83.9839449450734,4.726938177862259,80.7306428474784,60.294358993898314,57.58095628467375,80.81256797556003" fill-opacity="0.25" fill="#7689de"/></g><g stroke-opacity="1" stroke="#7689de" transform="matrix(1,0,0,1,516.8101703550936,180.07349285232453)"><path d="M97.5486949486876,-8.009728097654403C95.19219255257912,22.824035001627305,49.65001860027522,88.53466559357065,29.29413582229485,100.42978525736612C8.938253044314486,112.32490492116159,-5.774724729535674,80.70880054986736,-24.58660171919459,63.36098988511846C-43.3984787088535,46.01317922036955,-79.5368722355244,23.888954131839448,-83.57712611565864,-3.657078731127349C-87.61737999579289,-31.203111594094146,-69.99650438576745,-88.42925485814952,-48.82812500000004,-101.91520729268231C-27.65974561423264,-115.4011597272151,19.037013540831165,-100.22370653749543,43.43315019894577,-84.57279333832412C67.82928685706037,-68.9218801391528,99.90519734479608,-38.843491196936114,97.5486949486876,-8.009728097654403C95.19219255257912,22.824035001627305,49.65001860027522,88.53466559357065,29.29413582229485,100.42978525736612" fill-opacity="0.25" fill="#7689de"/></g><g stroke-opacity="1" stroke="#7689de" transform="matrix(1,0,0,1,500.9097495244905,314.01754145054673)"><path d="M91.16122956487145,0.003565624588368621C94.66925278881968,27.051932241529467,96.43070581753723,88.3879038359928,69.99924309438049,101.83419147067028C43.56778037122375,115.28047910534775,-46.24824871534069,97.65351495420799,-67.42754677406899,80.68129143265321C-88.6068448327973,63.70906791109843,-59.53315831095427,29.9026202147714,-57.07654525798931,0.000850341341596561C-54.61993220502435,-29.900919532088206,-70.3591432910593,-88.65318471253929,-52.68786845627923,-98.72932780792561C-35.01659362149916,-108.80547090331194,24.97625408049934,-76.91149046972866,48.95110375069112,-60.45600823097634C72.92595342088289,-44.00052599222401,87.65320634092322,-27.04480099235273,91.16122956487145,0.003565624588368621C94.66925278881968,27.051932241529467,96.43070581753723,88.3879038359928,69.99924309438049,101.83419147067028" fill-opacity="0.25" fill="#7689de"/></g><g stroke-opacity="1" stroke="#7689de" transform="matrix(1,0,0,1,481.2712208654404,435.70276339981757)"><path d="M91.00589789384715,-20.550219862587316C85.60146745104544,18.242750257419193,39.08933418498013,96.16051376185219,16.088676811017187,114.71318574585656C-6.911980562945754,133.26585772986093,-28.040558548094292,114.59140535808855,-46.99804634993049,90.76581204143892C-65.95553415176668,66.94021872478929,-97.35123689165508,4.516915727681322,-97.65625,-28.240374154041255C-97.96126310834492,-60.99766403576383,-73.19004324463795,-90.81055044553966,-48.82812500000004,-105.77792724889653C-24.466206755362137,-120.7453040522534,25.20958898551957,-132.2492528719007,48.515259467827434,-118.04463497418249C71.8209299501353,-103.84001707646428,96.41032833664886,-59.34318998259383,91.00589789384715,-20.550219862587316C85.60146745104544,18.242750257419193,39.08933418498013,96.16051376185219,16.088676811017187,114.71318574585656" fill-opacity="0.25" fill="#7689de"/></g><g stroke-opacity="1" stroke="#7689de" transform="matrix(1,0,0,1,640.223855483282,94.05966025443892)"><path d="M116.69674698094074,24.09683143221688C116.68915329220917,49.899573128863764,57.58893948868062,78.42621093739392,27.385390572975652,84.57279333832406C-2.818158342729319,90.7193757392542,-51.16754001856957,73.30471032627445,-64.5245465132891,60.97632583779774C-77.88155300800862,48.64794134932104,-48.18063297755248,33.78647881654109,-52.7566483953415,10.602486407463843C-57.33266381313052,-12.581506001613402,-105.3452392034743,-64.65327140849556,-91.98063902002322,-78.12762861666573C-78.61603883657213,-91.60198582483591,-7.348611628128918,-87.28106684970435,27.430952705365076,-70.24365684155724C62.21051703885907,-53.206246833410134,116.70434066967232,-1.7059102644300062,116.69674698094074,24.09683143221688C116.68915329220917,49.899573128863764,57.58893948868062,78.42621093739392,27.385390572975652,84.57279333832406" fill-opacity="0.25" fill="#7689de"/></g><g stroke-opacity="1" stroke="#7689de" transform="matrix(1,0,0,1,613.3863243100085,211.0040634436732)"><path d="M87.88561561078956,-2.1316282072803006e-14C89.33323859339369,35.19093852490467,75.22710525501165,94.39867237894565,48.828125000000014,108.93531710362939C22.42914474498838,123.47196182831313,-42.08082146188778,108.81172769648542,-70.50826591928023,87.21986834810241C-98.93571037667269,65.6280089997194,-126.4011382470063,4.884740786245654,-121.73654174435472,-20.615838986668635C-117.07194524170315,-46.11641875958293,-69.50050837815914,-52.18453111286163,-42.52068690337081,-65.78361028938332C-15.540865428582475,-79.382689465905,18.408003352015207,-113.17424909402932,40.14238710437527,-102.21031404579877C61.87677085673533,-91.24637899756821,86.43799262818543,-35.19093852490471,87.88561561078956,-2.1316282072803006e-14C89.33323859339369,35.19093852490467,75.22710525501165,94.39867237894565,48.828125000000014,108.93531710362939" fill-opacity="0.25" fill="#7689de"/></g><g stroke-opacity="1" stroke="#7689de" transform="matrix(1,0,0,1,639.579969433609,292.1067740204889)"><path d="M107.95532686297874,27.475460599564634C113.09492356056465,52.99550584697244,78.36103975860004,50.53037897462761,55.449045771577445,64.93761026202361C32.53705178455485,79.34484154941961,-9.905150278369568,125.69961322890101,-29.516637059156807,113.91884832394064C-49.128123839944045,102.13808341898026,-59.001293589672116,23.274542967955178,-62.219874913145986,-5.746979167738694C-65.43845623661986,-34.768501303432565,-63.300015083201366,-46.47100414777517,-48.82812500000004,-60.21028449022259C-34.35623491679872,-73.94956483267002,-1.5191097244345286,-102.79695207072112,24.611465586061936,-88.18266122242325C50.7420408965584,-73.56837037412538,102.81573016539282,1.9554153521568267,107.95532686297874,27.475460599564634C113.09492356056465,52.99550584697244,78.36103975860004,50.53037897462761,55.449045771577445,64.93761026202361" fill-opacity="0.25" fill="#7689de"/></g><g stroke-opacity="1" stroke="#7689de" transform="matrix(1,0,0,1,627.5510575712769,421.2214944962246)"><path d="M111.35741156675616,-11.658251495382032C105.03893949727026,19.02017566438379,54.7855174980961,66.25178004956283,30.677401485073744,80.33874052104088C6.569285472051387,94.42570099251893,-5.801771244643788,89.27417415918296,-33.29128451137798,72.86351133348629C-60.78079777811217,56.45284850778961,-128.63249561230276,6.153035725221894,-134.2596781153314,-18.125236433139197C-139.88686061836006,-42.403508591500284,-100.86236486576988,-58.538357282611116,-67.05437952954979,-72.80612161668026C-33.246394193329714,-87.0738859507494,38.85293538593808,-113.9231341244371,68.58823390198907,-103.73182243755406C98.32353241804006,-93.54051075067102,117.67588363624205,-42.33667865514785,111.35741156675616,-11.658251495382032C105.03893949727026,19.02017566438379,54.7855174980961,66.25178004956283,30.677401485073744,80.33874052104088" fill-opacity="0.25" fill="#7689de"/></g><g stroke-opacity="1" stroke="#7689de" transform="matrix(1,0,0,1,704.5970877948405,85.96121941346377)"><path d="M105.35532006653051,-20.586167034175485C102.28694942175827,1.2102528785312785,82.66742607791298,50.847590511961215,50.93504489996546,68.37408390737781C19.202663722017945,85.9005773027944,-57.08490146949721,99.5551542869778,-85.03896700115459,84.57279333832409C-112.99303253281197,69.59043238967038,-125.28529274609426,10.69946840115356,-116.78934828997876,-21.520081784544402C-108.29340383386327,-53.739631970242364,-65.08573644089127,-101.93044881181063,-34.06330026446165,-108.7445077758637C-3.0408640880320412,-115.55856673991676,46.10883204676689,-77.09749235914413,69.34526876859891,-62.404435568862766C92.58170549043093,-47.7113787785814,108.42369071130275,-42.38258694688225,105.35532006653051,-20.586167034175485C102.28694942175827,1.2102528785312785,82.66742607791298,50.847590511961215,50.93504489996546,68.37408390737781" fill-opacity="0.25" fill="#7689de"/></g><g stroke-opacity="1" stroke="#7689de" transform="matrix(1,0,0,1,709.9802664886604,165.93552308438674)"><path d="M117.35617538807765,20.952780605884648C123.24119320033644,51.72676110635715,91.26434057584348,64.86317356299679,67.08295829618298,76.90593790919235C42.90157601652248,88.9487022553879,-0.7947074280852924,108.01040056476933,-27.732118289885364,93.20936668305794C-54.66952915168544,78.40833280134655,-87.68893028284921,14.915939967204778,-94.54150687461743,-11.90026538107601C-101.39408346638564,-38.7164707293568,-89.89997089003586,-51.71491878786567,-68.8475778404946,-67.68786540662678C-47.79518479095332,-83.6608120253879,0.7388925512015057,-122.51138609572791,31.77285142263021,-107.73794509364268C62.80681029405892,-92.96450409155744,111.47115757581885,-9.821199894587856,117.35617538807765,20.952780605884648C123.24119320033644,51.72676110635715,91.26434057584348,64.86317356299679,67.08295829618298,76.90593790919235" fill-opacity="0.25" fill="#7689de"/></g><g stroke-opacity="1" stroke="#7689de" transform="matrix(1,0,0,1,746.1197421231118,330.2326712193251)"><path d="M73.31717807974803,-23.810506908160086C74.3849689150106,9.611023072940213,63.41365996683466,87.07164800503628,39.5480587159641,97.98274537602495C15.682457465093545,108.89384274701362,-50.65873878154261,57.98653488044278,-69.87642942547532,41.65607731777196C-89.09412006940804,25.325619755101137,-81.2054721477355,26.875373873760022,-75.7580851476322,1.4210854715202004e-14C-70.3106981475289,-26.875373873759994,-55.342007233525635,-102.50509350635862,-37.192107424855486,-119.5961659247881C-19.042207616185333,-136.6872383432176,14.723099453621447,-118.51071101334821,33.1413137043887,-102.54643451057687C51.55952795515596,-86.58215800780553,72.24938724448546,-57.232036889260385,73.31717807974803,-23.810506908160086C74.3849689150106,9.611023072940213,63.41365996683466,87.07164800503628,39.5480587159641,97.98274537602495" fill-opacity="0.25" fill="#7689de"/></g><g stroke-opacity="1" stroke="#7689de" transform="matrix(1,0,0,1,758.8105263986693,474.5313395015788)"><path d="M83.01490998604339,-2.1316282072803006e-14C88.86201220683029,26.231185707507525,90.55631901731105,58.391319051577995,68.5824798529705,71.4338660246253C46.60864068862993,84.47641299767261,-22.827290238457053,86.84624138552536,-48.82812499999997,78.25528183828384C-74.82895976154289,69.66432229104231,-84.7273880619758,42.967273387657585,-87.42252871628702,19.88810874117611C-90.11766937059824,-3.1910559053053618,-85.15270146662333,-42.579479880338994,-64.9989689258673,-60.219706040605004C-44.84523638511128,-77.85993220087101,8.830886709597326,-95.98986589385413,33.49986652824911,-85.95324822041997C58.16884634690089,-75.9166305469858,77.1678077652565,-26.231185707507567,83.01490998604339,-2.1316282072803006e-14C88.86201220683029,26.231185707507525,90.55631901731105,58.391319051577995,68.5824798529705,71.4338660246253" fill-opacity="0.25" fill="#7689de"/></g><g stroke-opacity="1" stroke="#7689de" transform="matrix(1,0,0,1,847.1144709586799,32.25516138059477)"><path d="M121.95518620965574,15.80638745060184C115.08148924605514,50.486399019837854,64.94331100343848,66.7646670205987,32.42039961723788,78.2257346685524C-0.10251176896272796,89.68680231650612,-56.93423606053938,94.96382836574958,-73.18228210754788,84.57279333832409C-89.43032815455638,74.1817583108986,-71.82572907019818,44.0704556167742,-65.0678766648131,15.879524503999505C-58.31002425942802,-12.311406608775187,-55.75691068584648,-60.283816796513534,-32.63516767523738,-84.57279333832406C-9.513424664628293,-108.86176988013459,47.897522418025915,-146.58419821168468,73.66258139884144,-129.85433474686369C99.42764037965696,-113.1244712820427,128.82888317325632,-18.873624118634176,121.95518620965574,15.80638745060184C115.08148924605514,50.486399019837854,64.94331100343848,66.7646670205987,32.42039961723788,78.2257346685524" fill-opacity="0.25" fill="#7689de"/></g><g stroke-opacity="1" stroke="#7689de" transform="matrix(1,0,0,1,862.6464333464882,174.17175872631512)"><path d="M116.97414038058268,18.189527829533894C115.80627649595444,41.417695216825614,93.87799227782565,31.539345379790156,69.7550798584428,42.64410874201709C45.63216743905994,53.74887210424402,-7.3290105774517365,95.65691982585209,-27.763334135714487,84.81810800289549C-48.197657693977234,73.97929617993888,-51.88425962378243,2.1214160262623416,-52.8508614911337,-22.3887621957225C-53.81746335848497,-46.89894041770734,-55.165132782713115,-49.85360576467842,-33.56294533982212,-62.24296132901354C-11.960757896931128,-74.63231689334866,51.67274887947815,-110.13031044149113,76.76226316621228,-96.72489558173322C101.85177745294641,-83.31948072197531,118.14200426521093,-5.038639557757826,116.97414038058268,18.189527829533894C115.80627649595444,41.417695216825614,93.87799227782565,31.539345379790156,69.7550798584428,42.64410874201709" fill-opacity="0.25" fill="#7689de"/></g><g stroke-opacity="1" stroke="#7689de" transform="matrix(1,0,0,1,851.204630894093,337.122502607617)"><path d="M55.19994900688954,12.458949142254909C59.672088114961966,44.484015532531,104.35297656729439,98.37497072162006,87.0149642328128,113.3257254896168C69.67695189833121,128.27648025761354,-15.855798099546782,121.56486160887953,-48.82812499999997,102.16347775023533C-81.80045190045317,82.76209389159114,-111.36389705827312,29.329659865086576,-110.81899716990635,-3.082577662248383C-110.27409728153958,-35.49481518958334,-74.05891346218007,-79.68626488214255,-45.55872566979931,-92.30994741377444C-17.05853787741854,-104.93362994540632,43.389017138263426,-96.28615561137795,60.18212958437823,-78.82467285203973C76.97524203049304,-61.3631900927015,50.727809898817114,-19.56611724802118,55.19994900688954,12.458949142254909C59.672088114961966,44.484015532531,104.35297656729439,98.37497072162006,87.0149642328128,113.3257254896168" fill-opacity="0.25" fill="#7689de"/></g><g stroke-opacity="1" stroke="#7689de" transform="matrix(1,0,0,1,820.8082242720656,454.02653223262763)"><path d="M95.27398471091823,-3.5556009739989562C93.94778965056143,20.066129970656203,71.65530977849593,88.89915841990494,48.828125000000014,100.74575285406937C26.0009402215041,112.5923472882338,-16.560372342958377,84.31492443999916,-41.689123960057245,67.5239656309876C-66.81787557715612,50.73300682197605,-100.75383471572512,22.981768464584253,-101.9443847025932,1.4210854715202004e-14C-103.13493468946128,-22.981768464584224,-75.28737055872139,-63.535873020874234,-48.83242388126573,-70.36664515651783C-22.377477203810066,-77.19741729216143,32.76756059677679,-52.119806844281406,56.785295362140786,-40.984632813861595C80.80303012750478,-29.849458783441783,96.60017977127502,-27.177331918654115,95.27398471091823,-3.5556009739989562C93.94778965056143,20.066129970656203,71.65530977849593,88.89915841990494,48.828125000000014,100.74575285406937" fill-opacity="0.25" fill="#7689de"/></g></svg>