<svg id="canvas" height="auto" xmlns="http://www.w3.org/2000/svg" version="1.1" xmlns:xlink="http://www.w3.org/1999/xlink" viewBox="0 0 900 512" width="auto" style="width: auto; height: auto;"><rect width="900" height="512" fill="#29439e"/><polyline points="0,512 0,37.92308184831119 112.5,87.56751906389457 225,13.563524005327455 337.5,24.85854375108017 450,53.16201785401371 562.5,6.934558240803162 675,51.586528349176525 787.5,97.34661526588957 900,100.39034321035167 902,514" fill="#20357e" opacity="0.9"/><polyline points="0,512 0,137.97350082136234 112.5,200.85764321442647 225,86.93492124661448 337.5,106.91974159310502 450,167.66806165804778 562.5,76.38726144487521 675,147.4482291875463 787.5,228.25503270290858 900,191.2533370060348 902,514" fill="#3150be" opacity="0.9"/><polyline points="0,512 0,227.5021023771862 112.5,286.4112677765723 225,183.9074582189432 337.5,241.4624910124092 450,283.77652059492755 562.5,187.72412183562852 675,271.15558446190573 787.5,298.34932495714236 900,298.46305609782456 902,514" fill="#29439e" opacity="0.9"/><polyline points="0,512 0,352.19550568919533 112.5,355.5887123124702 225,278.64008956966995 337.5,384.40356990246755 450,370.5523698371022 562.5,282.97092559735034 675,411.9602769121451 787.5,409.0201669148823 900,399.2147148833123 902,514" fill="#101a3f" opacity="0.9"/><polyline points="0,512 0,435.57972382027157 112.5,424.8785854643961 225,392.13703417400507 337.5,493.2681068014754 450,498.65891349317883 562.5,356.5338571953645 675,527.9295809129399 787.5,488.0471229683528 900,498.41254425556696 902,514" fill="#416bfe" opacity="0.9"/><polyline points="0,512 0,557.9415704297733 112.5,487.7275331528074 225,503.57909801825355 337.5,571.074134866404 450,609.9591509798158 562.5,470.1212592159046 675,635.8708954833028 787.5,623.7080623315508 900,640.9405102758643 902,514" fill="#29439e" opacity="0.9"/></svg>